<?xml version="1.0" encoding="UTF-8" standalone="no"?>
<svg width="100%" height="100%" viewBox="0 0 1000 270" version="1.1" xmlns="http://www.w3.org/2000/svg" style="fill-rule:evenodd;clip-rule:evenodd;stroke-linejoin:round;stroke-miterlimit:2;">
    <g id="vicert-logo-traced" transform="matrix(2.345608,0,0,2.386182,1284.901433,-430.525233)">
        <rect x="-547.79" y="180.424" width="426.329" height="113.151" style="fill:none;"/>
        <g transform="matrix(0.996,0,0,0.979064,-1.764833,4.196415)">
            <g transform="matrix(1,0,0,1,-571.828688,-0.518581)">
                <path d="M106.587,276.677C104.923,277.527 77.988,296.514 48.584,278.356C5.775,251.919 21.407,181.781 76.504,180.948C114.486,180.374 142.502,227.392 119.074,262.231C116.714,265.74 113.623,269.285 117.425,267.272C145.437,252.438 140.429,297.594 170.347,287.098C188.966,280.565 190.59,272.582 209.844,285.015C230.305,298.228 249.103,285.083 248.792,290.513C248.697,292.168 225.479,298.768 209.603,288.331C187.558,273.839 186.235,287.01 167.416,291.143C138.572,297.477 144.284,255.491 116.625,270.734C114.76,271.762 107.674,276.009 106.587,276.677ZM59.217,219.348C49.214,241.723 84.074,250.618 87.582,228.506C89.339,217.424 67.811,206.822 59.217,219.348ZM90.546,195.447C50.489,172.691 16.308,221.988 42.749,251.268C55.46,265.344 74.467,266.944 88.945,258.662L88.522,257.173C45.921,273.1 25.972,212.416 63.719,195.981C75.498,190.852 87.598,195.907 89.502,196.702L90.546,195.447ZM101.921,240.492L103.363,241.371C113.281,216.268 97.186,200.691 83.57,197.263C55.252,190.133 39.092,223.264 49.373,240.653C55.188,250.487 47.463,236.496 50.328,225.454C58.703,193.181 112.065,201.449 101.921,240.492ZM63.868,254.221C65.973,255.336 67.039,255.675 67.328,255.767C95.217,264.649 109.914,231.544 94.163,215.814C78.359,200.03 58.598,213.383 65.602,212.019C94.072,206.476 101.167,240.619 80.368,252.25C76.03,254.676 66.614,253.469 65.425,253.317C64.221,253.163 63.87,254.22 63.868,254.221ZM63.679,250.112C67.411,251.047 81.793,255.561 89.132,237.419C89.197,237.257 90.357,230.93 87.268,236.275C78.498,251.45 54.036,244.371 54.872,226.342C55.122,220.96 51.562,226.829 52.341,234.517C53.346,244.437 62.327,249.369 63.679,250.112ZM104.136,208.436C105.18,210.496 112.794,223.689 107.171,239.391C91.816,282.271 32.771,270.374 30.68,229.484C29.942,215.061 35.761,211.448 35.442,207.195C35.376,206.318 35.005,206.802 34.451,207.418C25.307,217.593 21.734,248.491 39.787,265.2C76.461,299.143 133.165,256.577 106.223,208.745L104.136,208.436ZM51.616,189.776L51.354,190.831C53.812,191.766 57.239,188.483 64.503,187.549C110.634,181.616 132.021,239.757 102.23,267.202C77.137,290.318 52.896,275.328 51.701,276.669C50.742,277.746 52.015,277.559 55.073,278.954C80.341,290.478 104.598,276.157 112.004,267.032C148.072,222.589 100.472,165.45 51.616,189.776Z" style="fill:rgb(0,153,255);"/>
            </g>
            <g transform="matrix(1,0,0,1,-571.828688,-0.518581)">
                <path d="M388.524,197.477C399.629,210.795 393.666,227.383 380.435,232.32C374.324,234.6 378.799,236.58 381.81,242.341C392.131,262.087 394.24,266.567 389.434,265.87C385.886,265.355 374.252,234.118 370.525,233.367C370.023,233.266 354.896,233.27 354.467,233.376C350.074,234.456 357.157,268.916 349.451,265.587C347.936,264.932 348.099,264.294 348.107,201.5C348.107,200.803 346.608,191.207 351.473,191.104C382.8,190.437 382.997,192.411 388.524,197.477ZM353.059,224.503C353.196,230.196 355.78,228.3 361.5,228.289C369.368,228.275 389.676,231.624 389.109,210.536C388.936,204.101 383.267,196.335 374.512,196.107C354.223,195.577 353.653,195.748 353.176,197.39C353,197.999 353.049,212.958 353.059,224.503Z" style="fill:white;"/>
            </g>
            <g transform="matrix(1,0,0,1,-571.828688,-0.518581)">
                <path d="M285.131,244.523C285.113,242.041 284.958,220.976 285.074,213.491C285.42,191.036 316.86,181.887 329.362,202.58C334.415,210.944 332.11,229.153 332.046,229.257C329.968,232.676 294.8,229.818 291.282,231.007C290.05,231.424 290.098,238.816 290.103,239.502C290.288,267.826 318.051,264.776 325.255,251.372C329.699,243.101 331.219,249.955 331.121,250.42C327.603,267.069 290.771,277.565 285.131,244.523ZM289.961,220.5C289.988,221.014 288.96,225.782 292.484,225.823C325.737,226.216 327.292,226.284 327.332,223.49C327.384,219.87 330.102,200.641 313.483,196.572C309.295,195.547 301.255,195.77 295.831,200.855C288.765,207.48 290.024,216.688 289.961,220.5Z" style="fill:white;"/>
            </g>
            <g transform="matrix(1,0,0,1,-571.828688,-0.518581)">
                <path d="M266.894,211.438C262.408,191.101 243.052,196.444 240.586,197.69C229.094,203.496 229.712,209.223 230.03,241.508C230.282,267.045 263.611,266.764 267.008,245.426C268.562,235.665 272.222,243.069 272.226,243.514C272.491,271.293 225.257,276.073 224.947,241.497C224.713,215.467 222.917,199.539 238.68,192.9C265.26,181.706 279.134,217.398 269.497,216.532C267.939,216.392 266.989,211.885 266.894,211.438Z" style="fill:white;"/>
            </g>
            <g transform="matrix(1,0,0,1,-571.828688,-0.518581)">
                <path d="M162.064,259.641C147.176,213.338 147.256,213.366 145.934,209.353C143.464,201.856 138.455,189.345 144.475,191.559C145.658,191.994 147.939,198.939 148.16,199.612C164.979,250.811 164.041,251.024 165.73,255.387C167.132,259.007 168.326,252.897 170.124,247.375C186.812,196.122 187.156,190.66 190.544,191.298C194.795,192.097 192.593,194.554 176.81,243.597C173.255,254.642 168.24,277.796 162.064,259.641Z" style="fill:white;"/>
            </g>
            <g transform="matrix(1,0,0,1,-571.828688,-0.518581)">
                <path d="M421.863,201.499C421.697,198.057 422.949,196.51 419.506,196.386C419.192,196.375 403.202,196.375 401.508,196.343C398.367,196.284 397.731,193.604 399.23,192.22C400.576,190.979 447.969,190.648 449.576,192.437C455.18,198.679 429.233,195.519 427.656,196.739C426.064,197.969 427.172,235.663 426.852,262.515C426.804,266.534 424.208,266.174 423.345,265.799C421.674,265.073 421.838,264.385 421.863,201.499Z" style="fill:white;"/>
            </g>
            <g transform="matrix(1,0,0,1,-571.828688,-0.518581)">
                <path d="M207.7,240.5C207.7,255.656 208.774,269.832 203.754,265.222C202.726,264.277 202.81,263.994 202.819,197.5C202.82,188.46 207.076,192.119 207.302,192.6C207.769,193.597 207.7,193.671 207.7,240.5Z" style="fill:white;"/>
            </g>
            <g transform="matrix(1,0,0,1,-571.828688,-0.518581)">
                <path d="M104.136,208.436C103.918,203.682 105.863,208.188 106.223,208.745C105.527,208.642 104.832,208.539 104.136,208.436Z" style="fill:rgb(49,182,250);"/>
            </g>
            <g transform="matrix(1,0,0,1,-571.828688,-0.518581)">
                <path d="M89.518,256.737C89.518,257.81 89.382,257.731 88.945,258.662L88.522,257.173L89.518,256.737Z" style="fill:rgb(80,198,252);"/>
            </g>
            <g transform="matrix(1,0,0,1,-571.828688,-0.518581)">
                <path d="M101.921,240.492C102.402,240.785 102.882,241.078 103.363,241.371C102.892,241.369 102.965,242.485 102.494,242.484C102.328,242.484 102.454,242.343 101.921,240.492Z" style="fill:rgb(98,205,252);"/>
            </g>
            <g transform="matrix(1,0,0,1,-571.828688,-0.518581)">
                <path d="M90.493,256.551C91.617,256.517 92.154,255.316 92.201,256.5C92.248,257.687 91.616,256.517 90.493,256.551Z" style="fill:rgb(42,183,254);"/>
            </g>
        </g>
    </g>
</svg>
